<mxfile host="app.diagrams.net" agent="Mozilla/5.0 (Windows NT 10.0; Win64; x64; rv:143.0) Gecko/20100101 Firefox/143.0" version="28.2.5">
  <diagram name="Page-1" id="NRUaliU6isM6UbWwukHp">
    <mxGraphModel grid="1" page="1" gridSize="10" guides="1" tooltips="1" connect="1" arrows="1" fold="1" pageScale="1" pageWidth="827" pageHeight="1169" math="0" shadow="0">
      <root>
        <mxCell id="0" />
        <mxCell id="1" parent="0" />
        <mxCell id="0zMOUz27BRnmFclNzM6_-4" value="V_historial" style="rounded=0;whiteSpace=wrap;html=1;fillColor=#ffe6cc;strokeColor=#d79b00;" vertex="1" parent="1">
          <mxGeometry x="-690" y="120" width="120" height="60" as="geometry" />
        </mxCell>
        <mxCell id="0zMOUz27BRnmFclNzM6_-5" value="&lt;div&gt;C_datos-historial&lt;/div&gt;&lt;div&gt;(route.ts)&lt;/div&gt;" style="rounded=0;whiteSpace=wrap;html=1;fillColor=#e1d5e7;strokeColor=#9673a6;" vertex="1" parent="1">
          <mxGeometry x="-500" y="120" width="120" height="60" as="geometry" />
        </mxCell>
        <mxCell id="0zMOUz27BRnmFclNzM6_-6" value="orders" style="rounded=0;whiteSpace=wrap;html=1;fillColor=#d5e8d4;strokeColor=#82b366;" vertex="1" parent="1">
          <mxGeometry x="-70" y="120" width="120" height="60" as="geometry" />
        </mxCell>
        <mxCell id="0zMOUz27BRnmFclNzM6_-7" value="Actor" style="shape=umlActor;verticalLabelPosition=bottom;verticalAlign=top;html=1;outlineConnect=0;" vertex="1" parent="1">
          <mxGeometry x="-800" y="120" width="30" height="60" as="geometry" />
        </mxCell>
        <mxCell id="0zMOUz27BRnmFclNzM6_-8" style="edgeStyle=orthogonalEdgeStyle;rounded=0;orthogonalLoop=1;jettySize=auto;html=1;exitX=0.5;exitY=1;exitDx=0;exitDy=0;" edge="1" parent="1" source="0zMOUz27BRnmFclNzM6_-4" target="0zMOUz27BRnmFclNzM6_-4">
          <mxGeometry relative="1" as="geometry" />
        </mxCell>
        <mxCell id="0zMOUz27BRnmFclNzM6_-9" value="" style="endArrow=none;dashed=1;html=1;dashPattern=1 3;strokeWidth=2;rounded=0;entryX=0.5;entryY=0.5;entryDx=0;entryDy=0;entryPerimeter=0;" edge="1" parent="1" target="0zMOUz27BRnmFclNzM6_-7">
          <mxGeometry width="50" height="50" relative="1" as="geometry">
            <mxPoint x="-785" y="1080" as="sourcePoint" />
            <mxPoint x="-763" y="250" as="targetPoint" />
          </mxGeometry>
        </mxCell>
        <mxCell id="0zMOUz27BRnmFclNzM6_-10" value="" style="endArrow=none;dashed=1;html=1;dashPattern=1 3;strokeWidth=2;rounded=0;entryX=0.5;entryY=1;entryDx=0;entryDy=0;" edge="1" parent="1" target="0zMOUz27BRnmFclNzM6_-5">
          <mxGeometry width="50" height="50" relative="1" as="geometry">
            <mxPoint x="-440" y="1080" as="sourcePoint" />
            <mxPoint x="-200" y="450" as="targetPoint" />
          </mxGeometry>
        </mxCell>
        <mxCell id="0zMOUz27BRnmFclNzM6_-11" value="" style="endArrow=none;dashed=1;html=1;dashPattern=1 3;strokeWidth=2;rounded=0;entryX=0.5;entryY=1;entryDx=0;entryDy=0;" edge="1" parent="1" target="0zMOUz27BRnmFclNzM6_-6">
          <mxGeometry width="50" height="50" relative="1" as="geometry">
            <mxPoint x="-10" y="1080" as="sourcePoint" />
            <mxPoint x="60" y="450" as="targetPoint" />
          </mxGeometry>
        </mxCell>
        <mxCell id="0zMOUz27BRnmFclNzM6_-13" value="" style="endArrow=classic;html=1;rounded=0;" edge="1" parent="1">
          <mxGeometry width="50" height="50" relative="1" as="geometry">
            <mxPoint x="-780" y="240" as="sourcePoint" />
            <mxPoint x="-630" y="240" as="targetPoint" />
          </mxGeometry>
        </mxCell>
        <mxCell id="0zMOUz27BRnmFclNzM6_-14" value="Clic en historial" style="edgeLabel;html=1;align=center;verticalAlign=middle;resizable=0;points=[];" connectable="0" vertex="1" parent="0zMOUz27BRnmFclNzM6_-13">
          <mxGeometry x="-0.1758" y="4" relative="1" as="geometry">
            <mxPoint x="8" y="-6" as="offset" />
          </mxGeometry>
        </mxCell>
        <mxCell id="0zMOUz27BRnmFclNzM6_-15" value="" style="endArrow=classic;html=1;rounded=0;" edge="1" parent="1">
          <mxGeometry width="50" height="50" relative="1" as="geometry">
            <mxPoint x="-630" y="290" as="sourcePoint" />
            <mxPoint x="-440" y="290" as="targetPoint" />
          </mxGeometry>
        </mxCell>
        <mxCell id="0zMOUz27BRnmFclNzM6_-16" value="GET/api/dato-historial()" style="text;html=1;align=center;verticalAlign=middle;resizable=0;points=[];autosize=1;strokeColor=none;fillColor=none;" vertex="1" parent="1">
          <mxGeometry x="-600" y="260" width="150" height="30" as="geometry" />
        </mxCell>
        <mxCell id="0zMOUz27BRnmFclNzM6_-17" value="" style="endArrow=classic;html=1;rounded=0;" edge="1" parent="1">
          <mxGeometry width="50" height="50" relative="1" as="geometry">
            <mxPoint x="-440" y="440" as="sourcePoint" />
            <mxPoint x="-10" y="440" as="targetPoint" />
          </mxGeometry>
        </mxCell>
        <mxCell id="0zMOUz27BRnmFclNzM6_-18" value="&lt;div&gt;SELECT * FROM orders WHERE user_id = ? AND status = &quot;confirmed&quot;, token&lt;/div&gt;" style="text;html=1;align=center;verticalAlign=middle;resizable=0;points=[];autosize=1;strokeColor=none;fillColor=none;" vertex="1" parent="1">
          <mxGeometry x="-450" y="400" width="440" height="30" as="geometry" />
        </mxCell>
        <mxCell id="0zMOUz27BRnmFclNzM6_-19" value="" style="endArrow=classic;html=1;rounded=0;dashed=1;" edge="1" parent="1">
          <mxGeometry width="50" height="50" relative="1" as="geometry">
            <mxPoint x="-10" y="490" as="sourcePoint" />
            <mxPoint x="-440" y="490" as="targetPoint" />
          </mxGeometry>
        </mxCell>
        <mxCell id="0zMOUz27BRnmFclNzM6_-20" value="id" style="text;html=1;align=center;verticalAlign=middle;resizable=0;points=[];autosize=1;strokeColor=none;fillColor=none;" vertex="1" parent="1">
          <mxGeometry x="-380" y="450" width="30" height="30" as="geometry" />
        </mxCell>
        <mxCell id="0zMOUz27BRnmFclNzM6_-21" value="" style="endArrow=classic;html=1;rounded=0;" edge="1" parent="1">
          <mxGeometry width="50" height="50" relative="1" as="geometry">
            <mxPoint x="-430" y="540" as="sourcePoint" />
            <mxPoint x="-10" y="540" as="targetPoint" />
          </mxGeometry>
        </mxCell>
        <mxCell id="0zMOUz27BRnmFclNzM6_-22" value="&lt;div&gt;SELECT * FROM orderItems WHERE order_id IN (${placeholders}), token&lt;/div&gt;" style="text;html=1;align=center;verticalAlign=middle;resizable=0;points=[];autosize=1;strokeColor=none;fillColor=none;" vertex="1" parent="1">
          <mxGeometry x="-440" y="508" width="420" height="30" as="geometry" />
        </mxCell>
        <mxCell id="0zMOUz27BRnmFclNzM6_-23" value="" style="endArrow=classic;html=1;rounded=0;dashed=1;" edge="1" parent="1">
          <mxGeometry width="50" height="50" relative="1" as="geometry">
            <mxPoint x="-10" y="580" as="sourcePoint" />
            <mxPoint x="-440" y="580" as="targetPoint" />
          </mxGeometry>
        </mxCell>
        <mxCell id="0zMOUz27BRnmFclNzM6_-24" value="order_id, product_id, product_name, quantity" style="text;html=1;align=center;verticalAlign=middle;resizable=0;points=[];autosize=1;strokeColor=none;fillColor=none;" vertex="1" parent="1">
          <mxGeometry x="-390" y="550" width="260" height="30" as="geometry" />
        </mxCell>
        <mxCell id="0zMOUz27BRnmFclNzM6_-25" value="" style="endArrow=classic;html=1;rounded=0;" edge="1" parent="1">
          <mxGeometry width="50" height="50" relative="1" as="geometry">
            <mxPoint x="-440" y="610" as="sourcePoint" />
            <mxPoint x="-630" y="610" as="targetPoint" />
          </mxGeometry>
        </mxCell>
        <mxCell id="0zMOUz27BRnmFclNzM6_-26" value="Devuelve las ordenes con sus items" style="text;html=1;align=center;verticalAlign=middle;resizable=0;points=[];autosize=1;strokeColor=none;fillColor=none;" vertex="1" parent="1">
          <mxGeometry x="-640" y="580" width="220" height="30" as="geometry" />
        </mxCell>
        <mxCell id="0zMOUz27BRnmFclNzM6_-27" value="" style="endArrow=classic;html=1;rounded=0;" edge="1" parent="1">
          <mxGeometry width="50" height="50" relative="1" as="geometry">
            <mxPoint x="-630" y="650" as="sourcePoint" />
            <mxPoint x="-790" y="650" as="targetPoint" />
          </mxGeometry>
        </mxCell>
        <mxCell id="0zMOUz27BRnmFclNzM6_-28" value="Muestra las ordenes" style="text;html=1;align=center;verticalAlign=middle;resizable=0;points=[];autosize=1;strokeColor=none;fillColor=none;" vertex="1" parent="1">
          <mxGeometry x="-785" y="620" width="130" height="30" as="geometry" />
        </mxCell>
        <mxCell id="0zMOUz27BRnmFclNzM6_-30" value="Cookies" style="rounded=0;whiteSpace=wrap;html=1;fillColor=#d5e8d4;strokeColor=#82b366;" vertex="1" parent="1">
          <mxGeometry x="110" y="120" width="120" height="60" as="geometry" />
        </mxCell>
        <mxCell id="0zMOUz27BRnmFclNzM6_-31" value="" style="endArrow=classic;html=1;rounded=0;" edge="1" parent="1">
          <mxGeometry width="50" height="50" relative="1" as="geometry">
            <mxPoint x="-440" y="320" as="sourcePoint" />
            <mxPoint x="170" y="320" as="targetPoint" />
          </mxGeometry>
        </mxCell>
        <mxCell id="0zMOUz27BRnmFclNzM6_-33" value="" style="endArrow=none;dashed=1;html=1;dashPattern=1 3;strokeWidth=2;rounded=0;entryX=0.5;entryY=1;entryDx=0;entryDy=0;" edge="1" parent="1" target="0zMOUz27BRnmFclNzM6_-30">
          <mxGeometry width="50" height="50" relative="1" as="geometry">
            <mxPoint x="170" y="1080" as="sourcePoint" />
            <mxPoint x="40" y="360" as="targetPoint" />
          </mxGeometry>
        </mxCell>
        <mxCell id="0zMOUz27BRnmFclNzM6_-34" value="get{&quot;authToken&quot;)" style="text;html=1;align=center;verticalAlign=middle;resizable=0;points=[];autosize=1;strokeColor=none;fillColor=none;" vertex="1" parent="1">
          <mxGeometry x="-410" y="280" width="110" height="30" as="geometry" />
        </mxCell>
        <mxCell id="0zMOUz27BRnmFclNzM6_-35" value="" style="endArrow=classic;html=1;rounded=0;dashed=1;" edge="1" parent="1">
          <mxGeometry width="50" height="50" relative="1" as="geometry">
            <mxPoint x="170" y="350" as="sourcePoint" />
            <mxPoint x="-440" y="350" as="targetPoint" />
          </mxGeometry>
        </mxCell>
        <mxCell id="0zMOUz27BRnmFclNzM6_-36" value="{authToken)" style="text;html=1;align=center;verticalAlign=middle;resizable=0;points=[];autosize=1;strokeColor=none;fillColor=none;" vertex="1" parent="1">
          <mxGeometry x="-400" y="318" width="90" height="30" as="geometry" />
        </mxCell>
        <mxCell id="0zMOUz27BRnmFclNzM6_-37" value="C_cart" style="rounded=0;whiteSpace=wrap;html=1;fillColor=#e1d5e7;strokeColor=#9673a6;" vertex="1" parent="1">
          <mxGeometry x="-330" y="120" width="120" height="60" as="geometry" />
        </mxCell>
        <mxCell id="0zMOUz27BRnmFclNzM6_-39" value="" style="endArrow=classic;html=1;rounded=0;" edge="1" parent="1">
          <mxGeometry width="50" height="50" relative="1" as="geometry">
            <mxPoint x="-780" y="710" as="sourcePoint" />
            <mxPoint x="-630" y="710" as="targetPoint" />
          </mxGeometry>
        </mxCell>
        <mxCell id="0zMOUz27BRnmFclNzM6_-40" value="Click &quot;Agregar Todos al Carrito&quot;" style="text;html=1;align=center;verticalAlign=middle;resizable=0;points=[];autosize=1;strokeColor=none;fillColor=none;" vertex="1" parent="1">
          <mxGeometry x="-790" y="680" width="190" height="30" as="geometry" />
        </mxCell>
        <mxCell id="0zMOUz27BRnmFclNzM6_-41" value="" style="endArrow=classic;html=1;rounded=0;" edge="1" parent="1">
          <mxGeometry width="50" height="50" relative="1" as="geometry">
            <mxPoint x="-630" y="740" as="sourcePoint" />
            <mxPoint x="-630" y="760" as="targetPoint" />
            <Array as="points">
              <mxPoint x="-550" y="740" />
              <mxPoint x="-550" y="760" />
            </Array>
          </mxGeometry>
        </mxCell>
        <mxCell id="0zMOUz27BRnmFclNzM6_-42" value="Itera sobre todos los items" style="text;html=1;align=center;verticalAlign=middle;resizable=0;points=[];autosize=1;strokeColor=none;fillColor=none;" vertex="1" parent="1">
          <mxGeometry x="-630" y="708" width="160" height="30" as="geometry" />
        </mxCell>
        <mxCell id="0zMOUz27BRnmFclNzM6_-45" value="" style="endArrow=classic;html=1;rounded=0;" edge="1" parent="1">
          <mxGeometry width="50" height="50" relative="1" as="geometry">
            <mxPoint x="-630" y="830" as="sourcePoint" />
            <mxPoint x="-270" y="830" as="targetPoint" />
          </mxGeometry>
        </mxCell>
        <mxCell id="0zMOUz27BRnmFclNzM6_-46" value="POST /api/cart(productId, quantity)" style="text;html=1;align=center;verticalAlign=middle;resizable=0;points=[];autosize=1;strokeColor=none;fillColor=none;" vertex="1" parent="1">
          <mxGeometry x="-630" y="800" width="210" height="30" as="geometry" />
        </mxCell>
        <mxCell id="0zMOUz27BRnmFclNzM6_-47" value="" style="endArrow=classic;html=1;rounded=0;dashed=1;" edge="1" parent="1">
          <mxGeometry width="50" height="50" relative="1" as="geometry">
            <mxPoint x="-270" y="870" as="sourcePoint" />
            <mxPoint x="-630" y="870" as="targetPoint" />
          </mxGeometry>
        </mxCell>
        <mxCell id="0zMOUz27BRnmFclNzM6_-48" value="retorna confirmacion del carrito" style="text;html=1;align=center;verticalAlign=middle;resizable=0;points=[];autosize=1;strokeColor=none;fillColor=none;" vertex="1" parent="1">
          <mxGeometry x="-450" y="840" width="190" height="30" as="geometry" />
        </mxCell>
        <mxCell id="0zMOUz27BRnmFclNzM6_-49" value="Muestra el pop up de confirmacion" style="text;html=1;align=center;verticalAlign=middle;resizable=0;points=[];autosize=1;strokeColor=none;fillColor=none;" vertex="1" parent="1">
          <mxGeometry x="-790" y="888" width="210" height="30" as="geometry" />
        </mxCell>
        <mxCell id="0zMOUz27BRnmFclNzM6_-50" value="" style="endArrow=classic;html=1;rounded=0;" edge="1" parent="1">
          <mxGeometry width="50" height="50" relative="1" as="geometry">
            <mxPoint x="-630" y="940" as="sourcePoint" />
            <mxPoint x="-780" y="940" as="targetPoint" />
          </mxGeometry>
        </mxCell>
        <mxCell id="0zMOUz27BRnmFclNzM6_-54" value="" style="endArrow=none;dashed=1;html=1;dashPattern=1 3;strokeWidth=2;rounded=0;entryX=0.5;entryY=1;entryDx=0;entryDy=0;" edge="1" parent="1" target="0zMOUz27BRnmFclNzM6_-37">
          <mxGeometry width="50" height="50" relative="1" as="geometry">
            <mxPoint x="-270" y="1080" as="sourcePoint" />
            <mxPoint x="-210" y="710" as="targetPoint" />
          </mxGeometry>
        </mxCell>
        <mxCell id="0zMOUz27BRnmFclNzM6_-56" value="" style="endArrow=none;dashed=1;html=1;dashPattern=1 3;strokeWidth=2;rounded=0;entryX=0.5;entryY=1;entryDx=0;entryDy=0;" edge="1" parent="1" target="0zMOUz27BRnmFclNzM6_-4">
          <mxGeometry width="50" height="50" relative="1" as="geometry">
            <mxPoint x="-630" y="1080" as="sourcePoint" />
            <mxPoint x="-530" y="280" as="targetPoint" />
          </mxGeometry>
        </mxCell>
      </root>
    </mxGraphModel>
  </diagram>
</mxfile>
